{
	"asset":{
		"generator":"Khronos glTF Blender I/O v3.6.27",
		"version":"2.0"
	},
	"scene":0,
	"scenes":[
		{
			"name":"Scene",
			"nodes":[
				0
			]
		}
	],
	"nodes":[
		{
			"mesh":0,
			"name":"Trace",
			"rotation":[
				0.7071068286895752,
				0,
				0,
				0.7071068286895752
			]
		}
	],
	"materials":[
		{
			"doubleSided":true,
			"name":"Material.001",
			"pbrMetallicRoughness":{
				"baseColorFactor":[
					0.07356297224760056,
					0.27383098006248474,
					0.0329660028219223,
					1
				],
				"metallicFactor":0,
				"roughnessFactor":0.5
			}
		},
		{
			"doubleSided":true,
			"name":"Material.002",
			"pbrMetallicRoughness":{
				"baseColorFactor":[
					0,
					0,
					0,
					1
				],
				"metallicFactor":0,
				"roughnessFactor":0.5
			}
		},
		{
			"doubleSided":true,
			"name":"Material.003",
			"pbrMetallicRoughness":{
				"metallicFactor":0,
				"roughnessFactor":0.5
			}
		}
	],
	"meshes":[
		{
			"name":"Trace.001",
			"primitives":[
				{
					"attributes":{
						"POSITION":0,
						"NORMAL":1,
						"TEXCOORD_0":2
					},
					"indices":3,
					"material":0
				},
				{
					"attributes":{
						"POSITION":4,
						"NORMAL":5,
						"TEXCOORD_0":6
					},
					"indices":7,
					"material":1
				},
				{
					"attributes":{
						"POSITION":8,
						"NORMAL":9,
						"TEXCOORD_0":10
					},
					"indices":11,
					"material":2
				}
			]
		}
	],
	"accessors":[
		{
			"bufferView":0,
			"componentType":5126,
			"count":2328,
			"max":[
				0.37577176094055176,
				0.05999976024031639,
				-1.115527629852295
			],
			"min":[
				-1.2972091436386108,
				-0.060000229626894,
				-2.4567432403564453
			],
			"type":"VEC3"
		},
		{
			"bufferView":1,
			"componentType":5126,
			"count":2328,
			"type":"VEC3"
		},
		{
			"bufferView":2,
			"componentType":5126,
			"count":2328,
			"type":"VEC2"
		},
		{
			"bufferView":3,
			"componentType":5123,
			"count":6888,
			"type":"SCALAR"
		},
		{
			"bufferView":4,
			"componentType":5126,
			"count":6086,
			"max":[
				1.5095493793487549,
				0.05999976024031639,
				1.6475473642349243
			],
			"min":[
				-1.418823480606079,
				-0.060000229626894,
				-1.235049843788147
			],
			"type":"VEC3"
		},
		{
			"bufferView":5,
			"componentType":5126,
			"count":6086,
			"type":"VEC3"
		},
		{
			"bufferView":6,
			"componentType":5126,
			"count":6086,
			"type":"VEC2"
		},
		{
			"bufferView":7,
			"componentType":5123,
			"count":17952,
			"type":"SCALAR"
		},
		{
			"bufferView":8,
			"componentType":5126,
			"count":90,
			"max":[
				1.482232928276062,
				-0.0009761849651113153,
				1.617040991783142
			],
			"min":[
				-1.3779528141021729,
				-0.0009763498092070222,
				-1.2726256847381592
			],
			"type":"VEC3"
		},
		{
			"bufferView":9,
			"componentType":5126,
			"count":90,
			"type":"VEC3"
		},
		{
			"bufferView":10,
			"componentType":5126,
			"count":90,
			"type":"VEC2"
		},
		{
			"bufferView":11,
			"componentType":5123,
			"count":354,
			"type":"SCALAR"
		}
	],
	"bufferViews":[
		{
			"buffer":0,
			"byteLength":27936,
			"byteOffset":0,
			"target":34962
		},
		{
			"buffer":0,
			"byteLength":27936,
			"byteOffset":27936,
			"target":34962
		},
		{
			"buffer":0,
			"byteLength":18624,
			"byteOffset":55872,
			"target":34962
		},
		{
			"buffer":0,
			"byteLength":13776,
			"byteOffset":74496,
			"target":34963
		},
		{
			"buffer":0,
			"byteLength":73032,
			"byteOffset":88272,
			"target":34962
		},
		{
			"buffer":0,
			"byteLength":73032,
			"byteOffset":161304,
			"target":34962
		},
		{
			"buffer":0,
			"byteLength":48688,
			"byteOffset":234336,
			"target":34962
		},
		{
			"buffer":0,
			"byteLength":35904,
			"byteOffset":283024,
			"target":34963
		},
		{
			"buffer":0,
			"byteLength":1080,
			"byteOffset":318928,
			"target":34962
		},
		{
			"buffer":0,
			"byteLength":1080,
			"byteOffset":320008,
			"target":34962
		},
		{
			"buffer":0,
			"byteLength":720,
			"byteOffset":321088,
			"target":34962
		},
		{
			"buffer":0,
			"byteLength":708,
			"byteOffset":321808,
			"target":34963
		}
	],
	"buffers":[
		{
			"byteLength":322516,
			"uri":"logo%201%20%D0%B1%D0%B5%D1%81%D0%BA%D0%BE%D0%BD%D0%B5%D1%87%D0%BD%D0%BE%D0%B5%20%D0%B2%D1%80%D0%B0%D1%89%D0%B5%D0%BD%D0%B8%D0%B5.bin"
		}
	]
}
